<?xml version="1.0" encoding="utf-8"?>
<!-- Generator: Adobe Illustrator 19.0.0, SVG Export Plug-In . SVG Version: 6.00 Build 0)  -->
<svg version="1.1" xmlns="http://www.w3.org/2000/svg" xmlns:xlink="http://www.w3.org/1999/xlink" x="0px" y="0px"
	 viewBox="59.9 277.8 92.8 92.8" style="enable-background:new 59.9 277.8 92.8 92.8;" xml:space="preserve">
<style type="text/css">
	.st0{fill:#354681;}
	.st1{fill:#FFFFFF;}
</style>
<g id="Layer_4">
</g>
<g id="Capa_1">
	<circle id="XMLID_8_" class="st0" cx="106.4" cy="324.2" r="46.4"/>
	<g id="XMLID_27_">
		<circle id="XMLID_7_" class="st1" cx="94.9" cy="329.8" r="2.2"/>
		<circle id="XMLID_6_" class="st1" cx="117.8" cy="329.8" r="2.2"/>
		<path id="XMLID_29_" class="st1" d="M133.7,328.9c0-3.1-2.3-5.8-5.3-6.3v-1c0-12.2-9.9-22.1-22.1-22.1c-12.2,0-22.1,9.9-22.1,22.1
			v1c-3,0.5-5.3,3.2-5.3,6.3c0,3.2,2.3,5.8,5.4,6.3c0.4,4.9,2.7,8.5,6.6,10.7c3.5,2,8.6,3,15.4,3c6.8,0,11.8-1,15.4-3
			c4-2.2,6.2-5.8,6.6-10.7C131.4,334.7,133.7,332.1,133.7,328.9z M81.2,328.9c0-1.9,1.3-3.5,3-4v8C82.5,332.4,81.2,330.8,81.2,328.9
			z M126.2,333.4c0,5-1.8,8.4-5.6,10.5c-3.2,1.8-7.9,2.7-14.3,2.7c-6.4,0-11.1-0.9-14.3-2.7c-3.7-2.1-5.6-5.5-5.6-10.5v-11.8
			c0-9,6-16.5,14.1-19c6.2,0.1,9.5,4.6,9.5,7.8c0,2.5-2,4.5-4.5,4.5c-1.9,0-3.4-1.5-3.4-3.4c0-1.4,1.1-2.5,2.5-2.5
			c0.6,0,1.1-0.5,1.1-1.1s-0.5-1.1-1.1-1.1c-2.6,0-4.7,2.1-4.7,4.7c0,3.1,2.5,5.7,5.7,5.7c3.7,0,6.8-3,6.8-6.8
			c0-2.3-1.2-4.9-3.2-6.8c-0.8-0.8-1.7-1.4-2.7-1.9c10.8,0.1,19.6,9,19.6,19.8L126.2,333.4L126.2,333.4z M128.4,332.9v-8
			c1.7,0.5,3,2.1,3,4S130.2,332.4,128.4,332.9z"/>
		<path id="XMLID_1_" class="st1" d="M110.7,332.9c-2.4,2.4-6.3,2.4-8.8,0c-0.4-0.4-1.2-0.4-1.6,0c-0.4,0.4-0.4,1.2,0,1.6
			c1.6,1.6,3.8,2.5,6,2.5s4.3-0.8,6-2.5c0.4-0.4,0.4-1.2,0-1.6C111.9,332.5,111.2,332.5,110.7,332.9z"/>
	</g>
</g>
</svg>
