<?xml version="1.0" encoding="utf-8"?>
<!-- Generator: Adobe Illustrator 19.0.0, SVG Export Plug-In . SVG Version: 6.00 Build 0)  -->
<svg version="1.1" id="Layer_3" xmlns="http://www.w3.org/2000/svg" xmlns:xlink="http://www.w3.org/1999/xlink" x="0px" y="0px"
	 viewBox="224.6 167.8 92.8 92.8" style="enable-background:new 224.6 167.8 92.8 92.8;" xml:space="preserve">
<style type="text/css">
	.st0{fill:#354681;}
	.st1{fill:#FFFFFF;}
	.st2{fill:#B24040;}
</style>
<circle id="XMLID_26_" class="st0" cx="271" cy="214.2" r="46.4"/>
<g id="XMLID_34_">
	<path id="XMLID_42_" class="st1" d="M294.4,196.3c-1.4-1.8-3.2-3.1-5.2-3.7l-8.5-2.4c-0.7-0.2-1.4-0.3-2-0.3
		c-3.6,0-6.1,2.7-6.1,6.5c0,7.4,1.1,10.7,2.2,14.1c1.2,3.8,2.5,7.8,2.5,18.4c0,2.7,0.8,5.1,2.4,6.8c1.5,1.7,3.7,2.7,6.1,2.8
		c0.1,0,0.2,0,0.3,0c2.4,0,4.4-0.8,6-2.2c1.6-1.5,2.7-3.7,2.9-6.3c0.5-5,1.2-18.4,1.5-27.6l0-0.1
		C296.5,200.3,295.8,198.1,294.4,196.3z M278.7,193.2c0.4,0,0.8,0.1,1.2,0.2l8.5,2.4c2.7,0.8,4.9,3.8,5,6.5c-0.1,2.2-0.2,4.6-0.3,7
		c-1-1.6-2.2-3.1-3.7-4.4c-2.1-1.9-4.2-3.2-5.4-3.8v-2.2h-3.2v2.2c-1.1,0.6-2.9,1.8-4.2,3.8c-0.4-2.1-0.7-4.7-0.7-8.4
		C275.8,194.4,277,193.2,278.7,193.2z M291.8,229.6c-0.4,3.6-2.5,5.6-5.7,5.6c-0.1,0-0.2,0-0.2,0c-3.2-0.1-5.3-2.6-5.3-6.3
		c0-10.6-1.3-15.1-2.5-18.8c0.2-3.6,3-5.5,4.3-6.2c1,0.5,3,1.6,4.9,3.4c3.5,3.3,5.3,7.2,5.3,11.6
		C292.3,223.4,292.1,227.4,291.8,229.6z"/>
	<path id="XMLID_35_" class="st1" d="M263.2,189.9c-0.7,0-1.4,0.1-2,0.3l-8.5,2.4c-2,0.6-3.8,1.9-5.2,3.7c-1.4,1.8-2.1,3.9-2.1,6
		l0,0.1c0.3,9.3,1,22.6,1.5,27.6c0.3,2.6,1.3,4.8,2.9,6.3c1.6,1.4,3.7,2.2,6,2.2c0.1,0,0.2,0,0.3,0c2.4-0.1,4.6-1.1,6.1-2.8
		c1.6-1.7,2.4-4.1,2.4-6.8c0-10.6,1.3-14.6,2.5-18.4c1.1-3.5,2.2-6.7,2.2-14.1C269.4,192.7,266.8,189.9,263.2,189.9z M253.6,195.7
		l8.5-2.4c0.4-0.1,0.8-0.2,1.2-0.2c1.8,0,2.9,1.3,2.9,3.2c0,3.8-0.3,6.3-0.7,8.4c-1.3-1.9-3.1-3.1-4.2-3.8v-2.2H258v2.2
		c-1.2,0.6-3.3,1.8-5.4,3.8c-1.5,1.4-2.7,2.8-3.7,4.4c-0.1-2.5-0.2-4.8-0.3-7C248.7,199.5,250.9,196.5,253.6,195.7z M261.5,228.9
		c0,3.8-2.1,6.2-5.3,6.3c-0.1,0-0.2,0-0.2,0c-3.3,0-5.4-2-5.7-5.6c-0.2-2.3-0.5-6.2-0.7-10.7c0-4.4,1.8-8.4,5.3-11.6
		c1.9-1.8,3.9-2.9,4.9-3.4c1.3,0.7,4.1,2.7,4.3,6.2C262.7,213.9,261.5,218.3,261.5,228.9z"/>
</g>
<g id="XMLID_31_">
	<path id="XMLID_33_" class="st2" d="M259.4,259c24.7,6.4,50-8.5,56.3-33.2s-8.5-50-33.2-56.3c-24.7-6.4-50,8.5-56.3,33.2
		C219.8,227.3,234.7,252.6,259.4,259z M281,175.7c21.2,5.5,34,27.2,28.5,48.5s-27.2,34-48.5,28.5s-34-27.3-28.5-48.5
		S259.8,170.2,281,175.7L281,175.7z"/>
	<path id="XMLID_17_" class="st2" d="M248.7,246.1l50.5-60.6c2.2-2.6,2.8-5.6,1.4-6.8c-1.4-1.2-4.2,0-6.4,2.6l-50.5,60.6
		c-2.2,2.6-2.8,5.6-1.4,6.8S246.6,248.6,248.7,246.1z"/>
</g>
</svg>
