<?xml version="1.0" encoding="utf-8"?>
<!-- Generator: Adobe Illustrator 19.0.0, SVG Export Plug-In . SVG Version: 6.00 Build 0)  -->
<svg version="1.1" id="hiking" xmlns="http://www.w3.org/2000/svg" xmlns:xlink="http://www.w3.org/1999/xlink" x="0px" y="0px"
	 viewBox="116.2 72 92.8 92.8" style="enable-background:new 116.2 72 92.8 92.8;" xml:space="preserve">
<style type="text/css">
	.st0{fill:#354681;}
	.st1{fill:#FFFFFF;}
</style>
<circle id="XMLID_16_" class="st0" cx="162.6" cy="118.4" r="46.4"/>
<g id="XMLID_28_">
	<path id="XMLID_30_" class="st1" d="M190.5,135.6h-0.3c-0.4-4.1-3.7-8.2-7.7-9.2l-11.7-3.1c-3.5-0.9-6.8-4.8-7.2-8.4l-1.7-16.4
		c0-0.5-0.4-0.8-0.9-0.8h-23.1v-2.8c0-0.5-0.4-0.9-0.9-0.9s-0.9,0.4-0.9,0.9v21.9c0,1.9-0.3,4.7-0.8,6c0,0,0,0,0,0
		c-0.5,1.5-0.8,4-0.8,5.5v4.6c-0.1,0-0.2,0.1-0.3,0.2c-0.2,0.2-0.3,0.4-0.3,0.6v8.2c0,0.5,0.4,0.9,0.9,0.9h16.2
		c0.5,0,0.9-0.4,0.9-0.9v-3l13.5,2.5v0.5c0,0.5,0.4,0.9,0.9,0.9h24.2c0.5,0,0.9-0.4,0.9-0.9v-5.4C191.4,136,191,135.6,190.5,135.6z
		 M182,128.2c3.2,0.9,5.9,4.1,6.4,7.5h-22l-5-0.9c0.3-1.4,1.6-2.5,3.1-2.5h4.8c0.5,0,0.9-0.4,0.9-0.9v-3.7c0,0,0-2.6,0-2.6
		c0,0,0.1,0,0.1,0L182,128.2z M168.3,124.2v2c-4.3-1.9-7.9-6.5-8.4-11.1l-0.1-1h1.8l0.1,0.9C162.1,118.7,164.9,122.5,168.3,124.2z
		 M161,107.4h-1.8l-0.3-3.1h1.8L161,107.4z M161.1,109.3l0.3,3.1h-1.8l-0.3-3.1H161.1z M160.1,99.5l0.3,3.1h-2.7c0,0-13.5,0-13.5,0
		c-0.5,0-0.9,0.4-0.9,0.9c0,0.5,0.4,0.9,0.9,0.9h12.7l0.3,3.1H157c-0.5,0-0.9,0.4-0.9,0.9c0,0.5,0.4,0.9,0.9,0.9h0.4l0.3,3.1h-0.2
		c-0.5,0-0.9,0.4-0.9,0.9c0,0.5,0.4,0.9,0.9,0.9h0.4l0.1,1.2c0.6,5.6,4.9,11,10.2,12.9v2.1h-3.8c-2.4,0-4.4,1.7-4.9,4l-8.5-1.6
		c-0.1,0-0.1,0-0.2,0l-14.7,0v-4.5c0-1.1,0.2-2.9,0.6-4.3c3.8,0.3,7.1,2.7,8.4,6.3c0.1,0.4,0.5,0.6,0.9,0.6c0.1,0,0.2,0,0.3-0.1
		c0.5-0.2,0.7-0.7,0.5-1.2c-1.5-4.1-5.3-7-9.7-7.5c0.3-1.6,0.6-3.8,0.6-5.4v-12.4h2.8c0.5,0,0.9-0.4,0.9-0.9c0-0.5-0.4-0.9-0.9-0.9
		h-2.8v-3.1H160.1z M189.6,141h-2.2v-0.7c0-0.5-0.4-0.9-0.9-0.9s-0.9,0.4-0.9,0.9v0.7h-2.2v-0.7c0-0.5-0.4-0.9-0.9-0.9
		c-0.5,0-0.9,0.4-0.9,0.9v0.7h-2.2v-0.7c0-0.5-0.4-0.9-0.9-0.9c-0.5,0-0.9,0.4-0.9,0.9v0.7h-2.2v-0.7c0-0.5-0.4-0.9-0.9-0.9
		s-0.9,0.4-0.9,0.9v0.7h-2.2v-0.7c0-0.5-0.4-0.9-0.9-0.9s-0.9,0.4-0.9,0.9v0.7h-2.2v-0.3c0-0.4-0.3-0.8-0.8-0.9l-15.4-2.9
		c-0.3,0-0.5,0-0.8,0.2c-0.2,0.2-0.3,0.4-0.3,0.7v3.2h-2.2v-0.7c0-0.5-0.4-0.9-0.9-0.9s-0.9,0.4-0.9,0.9v0.7h-2.2v-0.7
		c0-0.5-0.4-0.9-0.9-0.9c-0.5,0-0.9,0.4-0.9,0.9v0.7h-2.2v-0.7c0-0.5-0.4-0.9-0.9-0.9c-0.5,0-0.9,0.4-0.9,0.9v0.7h-2.2v-6.4l15.2,0
		l15.3,2.8c0.1,0,0.1,0,0.2,0h23.3V141z"/>
</g>
</svg>
