<?xml version="1.0" encoding="utf-8"?>
<!-- Generator: Adobe Illustrator 20.1.0, SVG Export Plug-In . SVG Version: 6.00 Build 0)  -->
<svg version="1.1" xmlns="http://www.w3.org/2000/svg" xmlns:xlink="http://www.w3.org/1999/xlink" x="0px" y="0px"
	 viewBox="0 0 171.7 167.4" style="enable-background:new 0 0 171.7 167.4;" xml:space="preserve">
<style type="text/css">
	.st0{fill:none;}
	.st1{fill:#AA2C27;}
	.st2{font-family:'Palatino-Bold';}
	.st3{font-size:14px;}
	.st4{fill:#586E96;}
	.st5{font-size:12px;}
	.st6{letter-spacing:1;}
	.st7{fill-rule:evenodd;clip-rule:evenodd;fill:#FFFFFF;}
	.st8{fill-rule:evenodd;clip-rule:evenodd;fill:#363738;}
	.st9{fill:#F7F5F0;}
	.st10{fill:#27282C;}
	.st11{fill:#810206;}
</style>
<g id="Layer_2">
</g>
<g id="Layer_1">
	<g id="XMLID_24_">
		<rect id="XMLID_5_" x="10" y="131.4" class="st0" width="156.1" height="17.1"/>
		<text id="XMLID_4_" transform="matrix(1 0 0 1 10.3005 141.4748)" class="st1 st2 st3">Marine Heritage Society</text>
		<rect id="XMLID_7_" x="15" y="153.8" class="st0" width="146.1" height="14.6"/>
		<text id="XMLID_6_" transform="matrix(1 0 0 1 16.3025 162.4244)" class="st4 st2 st5 st6">Chantry Island Tours</text>
		<g id="XMLID_1_">
			<path id="XMLID_67_" class="st4" d="M163.4,128.7c-1.2-41-34.6-73.4-75.6-73.4s-74.4,32.4-75.6,73.4H163.4z"/>
			<g id="XMLID_27_">
				<path id="XMLID_40_" class="st7" d="M126.3,83.1c4.1-8.5-12-16.3-15.7-6.8C118.2,72.7,124.1,75.1,126.3,83.1z"/>
				<path id="XMLID_37_" class="st7" d="M142,89.9c4.1-8.5-12-16.3-15.7-6.8C133.9,79.5,139.8,82,142,89.9z"/>
			</g>
			<g id="XMLID_9_">
				<path id="XMLID_16_" class="st8" d="M128.8,60.5c2.3-8-12.8-12.4-14.6-3.6C120.3,52.7,125.7,53.9,128.8,60.5z"/>
				<path id="XMLID_10_" class="st8" d="M143.5,64.2c2.3-8-12.8-12.4-14.6-3.6C135,56.4,140.4,57.6,143.5,64.2z"/>
			</g>
			<g id="XMLID_2_">
				<path id="XMLID_26_" class="st8" d="M144.9,75.4c3.2-6.6-9.4-12.8-12.3-5.3C138.6,67.3,143.1,69.2,144.9,75.4z"/>
				<path id="XMLID_12_" class="st8" d="M157.2,80.7c3.2-6.6-9.4-12.8-12.3-5.3C150.9,72.6,155.5,74.5,157.2,80.7z"/>
			</g>
			<path id="XMLID_13_" class="st0" d="M96.8,29.3c0-0.3-0.3-0.6-0.6-0.6h-4.8c-0.3,0-0.6,0.3-0.6,0.6v6.8c0,0.3,0.3,0.6,0.6,0.6
				h4.8c0.3,0,0.6-0.3,0.6-0.6V29.3z"/>
			<path id="XMLID_65_" class="st0" d="M76.3,37.5c0.3,0,0.5-0.2,0.5-0.5v-7.4c0-0.3-0.2-0.5-0.5-0.5s-0.5,0.2-0.5,0.5V37
				C75.8,37.3,76.1,37.5,76.3,37.5z"/>
			<path id="XMLID_66_" class="st0" d="M76,26.7h21c0.3,0,0.8,0.1,0.8-0.3V24c0-0.3-0.5-5.2-0.8-5.2H76c-0.3,0-0.2,4.9-0.2,5.2v2.5
				C75.8,26.8,75.7,26.7,76,26.7z"/>
			<path id="XMLID_69_" class="st0" d="M101.8,29.3c0-0.3-0.3-0.6-0.6-0.6h-0.8c-0.3,0-0.6,0.3-0.6,0.6v7.8c0,0.3,0.3,0.6,0.6,0.6
				h0.8c0.3,0,0.6-0.3,0.6-0.6V29.3z"/>
			<path id="XMLID_70_" class="st0" d="M83.8,29.3c0-0.3-0.3-0.6-0.6-0.6h-4.8c-0.3,0-0.6,0.3-0.6,0.6v6.8c0,0.3,0.3,0.6,0.6,0.6
				h4.8c0.3,0,0.6-0.3,0.6-0.6V29.3z"/>
			<polygon id="XMLID_71_" class="st0" points="93,67.7 99.8,67.7 99.8,79.3 99.8,79.3 99.8,67.7 93,67.7 			"/>
			<path id="XMLID_72_" class="st0" d="M97.3,29.1c-0.3,0-0.5,0.2-0.5,0.5V37c0,0.3,0.2,0.5,0.5,0.5s0.5-0.2,0.5-0.5v-7.4
				C97.8,29.4,97.6,29.1,97.3,29.1z"/>
			<rect id="XMLID_73_" x="77.8" y="57.9" class="st0" width="0" height="11.1"/>
			<path id="XMLID_74_" class="st0" d="M72.9,28.7H72c-0.3,0-0.2,0.3-0.2,0.7v8.4c0,0.3,0.2,0.6,0.5,0.6l1.5-0.6v-8.4
				C73.8,29.1,73.3,28.7,72.9,28.7z"/>
			<polygon id="XMLID_75_" class="st9" points="104.3,90.6 70.7,90.6 70.4,94.1 104.7,94.1 			"/>
			<path id="XMLID_23_" class="st9" d="M99.8,43.3H74.4L71,87.2h33L99.8,43.3z"/>
			<polygon id="XMLID_86_" class="st9" points="107,118.6 68.5,118.6 68.2,122 107.3,122 			"/>
			<polygon id="XMLID_87_" class="st9" points="69.1,111.8 69,111.8 68.8,115.2 106.7,115.2 106.3,111.8 106.3,111.8 			"/>
			<polygon id="XMLID_88_" class="st9" points="105.7,104.6 69.6,104.6 69.3,108.1 106,108.1 			"/>
			<polygon id="XMLID_89_" class="st9" points="70.2,97.8 70.1,97.8 69.9,101.2 105.3,101.2 105,97.8 105,97.8 			"/>
			<polygon id="XMLID_90_" class="st9" points="68,125.7 68,125.7 67.7,129.4 108,129.4 107.7,125.7 107.7,125.7 			"/>
			<rect id="XMLID_18_" x="92.8" y="67.7" class="st10" width="7" height="11"/>
			<polygon id="XMLID_102_" class="st4" points="68.8,87.7 68.8,89.7 70.7,89.7 104.3,89.7 106.8,89.7 106.8,87.7 104,87.7 71,87.7 
							"/>
			<polygon id="XMLID_103_" class="st4" points="70.2,97.7 105,97.7 105,97.7 107.8,97.7 107.8,93.7 104.7,93.7 104.7,93.7 
				70.4,93.7 70.4,93.7 65.8,93.7 65.8,97.7 70.1,97.7 			"/>
			<polygon id="XMLID_104_" class="st4" points="105.7,103.7 113.8,103.7 113.8,100.7 105.3,100.7 69.9,100.7 59.8,100.7 
				59.8,103.7 69.6,103.7 			"/>
			<polygon id="XMLID_105_" class="st4" points="69.1,111.7 106.3,111.7 106.3,111.7 112.8,111.7 112.8,107.7 106,107.7 106,107.7 
				69.3,107.7 69.3,107.7 59.8,107.7 59.8,111.7 69,111.7 			"/>
			<polygon id="XMLID_106_" class="st4" points="107,117.7 111.8,117.7 111.8,114.7 106.7,114.7 68.8,114.7 58.8,114.7 58.8,117.7 
				68.5,117.7 			"/>
			<polygon id="XMLID_107_" class="st4" points="114.8,121.7 107.3,121.7 107.3,121.7 68.2,121.7 68.2,121.7 62.8,121.7 62.8,125.7 
				68,125.7 68,125.7 107.7,125.7 107.7,125.7 114.8,125.7 			"/>
			<rect id="XMLID_8_" x="76.8" y="49.7" class="st10" width="7" height="11"/>
			<path id="XMLID_19_" class="st11" d="M99.6,21.7V19c0-0.3,0.3-0.6,0.6-0.6h4.7c0.3,0,0.6-0.3,0.6-0.6v-0.3c0-0.3-0.3-0.6-0.6-0.6
				l0,0c-0.3,0-0.5-0.2-0.6-0.4c-0.7-1.8-4.2-9.5-16-10.2L88.5,6c0.2-0.2,0.2-0.5,0-0.8l-1.4-1.7c-0.2-0.3-0.7-0.3-0.9,0l-1.4,1.7
				c-0.2,0.2-0.2,0.5,0,0.8l0.3,0.3c-11.8,0.6-15.3,8.3-16,10.2c-0.1,0.2-0.3,0.4-0.6,0.4l0,0c-0.3,0-0.6,0.3-0.6,0.6v0.3
				c0,0.3,0.3,0.6,0.6,0.6h4.7c0.3,0,0.6,0.3,0.6,0.6v2.7v1.5v3.1c0,0.3-0.3,0.6-0.6,0.6H69c-0.3,0-0.6,0.3-0.6,0.6v0.5
				c0,0.3,0.3,0.6,0.6,0.6h1c0.3,0,0.6,0.3,0.6,0.6v8.4c0,0.3-0.3,0.6-0.6,0.6h-1c-0.3,0-0.6,0.3-0.6,0.6v3.7c0,0.3,0.3,0.6,0.6,0.6
				h35.3c0.3,0,0.6-0.3,0.6-0.6v-3.7c0-0.3-0.3-0.6-0.6-0.6h-1c-0.3,0-0.6-0.3-0.6-0.6v-8.4c0-0.3,0.3-0.6,0.6-0.6h1
				c0.3,0,0.6-0.3,0.6-0.6v-0.5c0-0.3-0.3-0.6-0.6-0.6h-4.2c-0.3,0-0.6-0.3-0.6-0.6v-3.1V21.7z M71.7,37.5v-8.4
				c0-0.3,0.3-0.6,0.6-0.6h0.9c0.3,0,0.6,0.3,0.6,0.6v8.4c0,0.3-0.3,0.6-0.6,0.6h-0.9C72,38.1,71.7,37.8,71.7,37.5z M96.5,36v-6.8
				c0-0.3,0.3-0.6,0.6-0.6h0c0.3,0,0.6,0.3,0.6,0.6V36c0,0.3-0.3,0.6-0.6,0.6h0C96.8,36.6,96.5,36.3,96.5,36z M94.9,36.6h-4
				c-0.3,0-0.6-0.3-0.6-0.6v-6.8c0-0.3,0.3-0.6,0.6-0.6h4c0.3,0,0.6,0.3,0.6,0.6V36C95.5,36.3,95.2,36.6,94.9,36.6z M82.5,36.6h-4
				c-0.3,0-0.6-0.3-0.6-0.6v-6.8c0-0.3,0.3-0.6,0.6-0.6h4c0.3,0,0.6,0.3,0.6,0.6V36C83.1,36.3,82.8,36.6,82.5,36.6z M76.3,36.6
				L76.3,36.6c-0.4,0-0.6-0.3-0.6-0.6v-6.8c0-0.3,0.3-0.6,0.6-0.6h0c0.3,0,0.6,0.3,0.6,0.6V36C76.9,36.3,76.6,36.6,76.3,36.6z
				 M101.7,29.1v8.4c0,0.3-0.3,0.6-0.6,0.6h-0.9c-0.3,0-0.6-0.3-0.6-0.6v-8.4c0-0.3,0.3-0.6,0.6-0.6h0.9
				C101.4,28.5,101.7,28.8,101.7,29.1z M97.1,26.8H76.2c-0.3,0-0.6-0.3-0.6-0.6v-2.5c0-0.3,0.3-0.6,0.6-0.6h20.9
				c0.3,0,0.6,0.3,0.6,0.6v2.5C97.7,26.5,97.5,26.8,97.1,26.8z"/>
		</g>
		<rect id="XMLID_14_" x="12.6" y="148.7" class="st4" width="150.9" height="1.4"/>
		<rect id="XMLID_15_" x="12.6" y="147.2" class="st11" width="150.9" height="1.4"/>
	</g>
</g>
</svg>
